<svg width="34" height="32" viewBox="0 0 34 32" fill="none" xmlns="http://www.w3.org/2000/svg">
<path d="M22.5117 25.8413H11.4883C10.4479 25.1835 9.46289 24.426 8.5332 23.5689C7.7806 23.8081 7.0612 23.9277 6.375 23.9277C4.60417 23.9277 3.09896 23.3646 1.85938 22.2383C0.619792 21.112 0 19.7615 0 18.1868C0 16.9309 0.409505 15.8097 1.22852 14.8229C2.04753 13.8362 3.09896 13.1435 4.38281 12.7448C4.40495 12.6252 4.41602 12.5256 4.41602 12.4458H29.584C29.6947 13.1435 29.75 14.4193 29.75 16.2731C29.75 17.1701 29.5176 18.107 29.0527 19.0838C28.5879 20.0605 27.9792 20.9675 27.2266 21.8047C26.474 22.642 25.7048 23.3945 24.9189 24.0622C24.1331 24.73 23.3307 25.323 22.5117 25.8413ZM4.25 16.2731C4.25 15.9741 4.26107 15.5057 4.2832 14.8678C3.61914 15.2067 3.09342 15.6701 2.70605 16.2582C2.31868 16.8462 2.125 17.4891 2.125 18.1868C2.125 19.2432 2.54004 20.1453 3.37012 20.8928C4.2002 21.6403 5.20182 22.014 6.375 22.014C6.46354 22.014 6.64062 21.9941 6.90625 21.9542C5.13542 19.9409 4.25 18.0472 4.25 16.2731ZM19.125 6.70491C19.125 7.16339 19.2246 7.71157 19.4238 8.34945C20.2871 8.90759 20.8516 9.63518 21.1172 10.5322H18.9922C18.9479 10.2531 18.8926 10.0139 18.8262 9.81458C17.6087 9.0571 17 8.02054 17 6.70491C17 5.64842 17.415 4.74642 18.2451 3.9989C19.0752 3.25139 20.0768 2.87763 21.25 2.87763C21.582 2.87763 21.9362 2.9175 22.3125 2.99723C21.3828 3.2165 20.6191 3.66501 20.0215 4.34276C19.4238 5.02051 19.125 5.80789 19.125 6.70491ZM12.75 4.79127C12.75 5.24975 12.8496 5.79793 13.0488 6.43581C14.2663 7.21322 14.875 8.25975 14.875 9.57538C14.875 9.85445 14.8197 10.1734 14.709 10.5322H12.6172C12.7057 10.1734 12.75 9.85445 12.75 9.57538C12.75 9.09696 12.6504 8.53882 12.4512 7.90094C11.2337 7.14346 10.625 6.1069 10.625 4.79127C10.625 3.73478 11.04 2.83278 11.8701 2.08526C12.7002 1.33775 13.7018 0.963989 14.875 0.963989C15.207 0.963989 15.5612 1.00386 15.9375 1.08359C15.0078 1.30286 14.2441 1.75137 13.6465 2.42912C13.0488 3.10687 12.75 3.89425 12.75 4.79127ZM25.5 31.5823H8.5C7.28255 31.5823 5.9987 31.368 4.64844 30.9394C3.29818 30.5108 2.18587 29.9925 1.31152 29.3846C0.437174 28.7766 0 28.2334 0 27.755H34C34 28.2334 33.5628 28.7766 32.6885 29.3846C31.8141 29.9925 30.7018 30.5108 29.3516 30.9394C28.0013 31.368 26.7174 31.5823 25.5 31.5823Z" fill="black"/>
</svg>
